<svg width="50" height="50" viewBox="0 0 50 50" fill="none" xmlns="http://www.w3.org/2000/svg">
<g clip-path="url(#clip0_10552_28738)">
<path d="M25 50C38.8071 50 50 38.8071 50 25C50 11.1929 38.8071 0 25 0C11.1929 0 0 11.1929 0 25C0 38.8071 11.1929 50 25 50Z" fill="#2E3BFF"/>
<path d="M30.7777 21.2015H26.0575C25.8723 21.2015 25.6943 21.2755 25.5633 21.4071L14.6935 32.3251H7.61719V21.8104L11.8259 17.5783V29.2995H12.4272L23.4106 18.2674C23.8501 17.826 24.4459 17.5781 25.0672 17.5781H30.7777V21.2017V21.2015ZM42.4188 17.5781H35.3423L24.4727 28.4959C24.3416 28.6275 24.1637 28.7015 23.9784 28.7015H19.2582V32.3249H24.9638C25.5883 32.3249 26.1872 32.0759 26.6286 31.6322L37.6085 20.6039H38.2099V30.5072H31.4287V32.3251H38.2099L38.8346 31.697L39.4171 31.1112L42.4188 28.0931V17.5781Z" fill="white"/>
</g>
<defs>
<clipPath id="clip0_10552_28738">
<rect width="50" height="50" fill="white"/>
</clipPath>
</defs>
</svg>
